<svg width="653" height="141" viewBox="0 0 653 141" fill="none" xmlns="http://www.w3.org/2000/svg">
<path fill-rule="evenodd" clip-rule="evenodd" d="M52.7635 1.62642C35.0826 5.11083 17.7066 18.913 8.89915 36.4678C0.816249 52.5776 0.0418248 58.2951 0.0202381 102.066L0 141H72.1808H144.362V125.426V109.853H87.0217H29.6818V91.143C29.6818 62.4715 33.079 49.7567 43.3908 39.8411C51.5749 31.9704 54.9033 31.3082 86.3039 31.3082H114.68V42.8191V54.3299H129.521H144.362V27.2455V0.161151L101.525 0.310116C77.9647 0.39137 56.0231 0.983164 52.7635 1.62642ZM163.25 6.81985V13.6411L187.198 14.0108L211.146 14.3805L211.6 17.613C211.851 19.3911 211.244 21.3615 210.251 21.9939C209.26 22.6249 198.279 23.1504 185.849 23.1626L163.25 23.1829V42.142V61.101H169.996H176.742V49.0431V36.9851L195.293 36.5165C211.88 36.0981 214.289 35.7284 218.051 33.0362C226.824 26.7553 227.811 12.8813 220.039 5.07426L215.822 0.838261L189.536 0.419807L163.25 0V6.81985ZM237.455 30.6311V61.101H244.2H250.946V30.6311V0.161151H244.2H237.455V30.6311ZM270.399 1.47339C268.855 2.10039 265.971 4.54612 263.99 6.90787C257.623 14.5037 259.666 27.7683 268.079 33.4641C271.215 35.5875 274.959 36.1035 290.072 36.4908C300.09 36.7481 308.864 37.5146 309.568 38.1958C310.272 38.8769 313.46 39.4335 316.651 39.4335C321.93 39.4335 322.452 39.1302 322.452 36.0696C322.452 34.2184 320.682 30.7151 318.52 28.2829L314.585 23.86L295.246 23.447C279.524 23.1125 275.6 22.6344 274.272 20.8902C273.133 19.3965 273.046 17.9813 273.982 16.2249C275.214 13.9133 277.29 13.7033 298.889 13.7033H322.452V6.93225V0.161151L297.83 0.246467C284.288 0.293865 271.943 0.846386 270.399 1.47339ZM211.82 49.5902V61.101H218.566H225.312V49.5902V38.0793H218.566H211.82V49.5902ZM266.713 48.435C266.204 48.9456 265.787 52.0047 265.787 55.2332V61.101H294.869H323.95L323.539 54.6685L323.127 48.2359L295.383 47.8703C280.124 47.6699 267.223 47.9231 266.713 48.435ZM167.441 83.9887L163.25 87.9173V114.459V141H181.874C199.13 141 201.004 140.747 207.398 137.548C220.706 130.892 225.266 121.032 226.313 96.6493L227.025 80.0601H199.328H171.631L167.441 83.9887ZM236.368 86.4927L236.78 92.9252L261.049 93.6023C283.031 94.2158 285.361 94.5083 285.782 96.7143C286.879 102.449 284.274 103.082 259.551 103.082H236.105V122.041V141H242.851H249.597V128.812V116.624L266.799 116.621C286.378 116.62 291.264 115.08 296.454 107.283C300.09 101.818 300.341 96.434 297.263 89.9229C293.004 80.9133 289.935 80.0709 261.328 80.0655L235.957 80.0601L236.368 86.4927ZM310.31 86.8312V93.6023H334.505C357.702 93.6023 358.734 93.7161 359.575 96.3757C361.477 102.39 358.815 103.082 333.756 103.082H310.31V122.041V141H317.056H323.802V128.942V116.884L342.416 116.415C362.352 115.913 365.889 114.843 370.391 107.946C375.811 99.6421 373.288 87.6505 365.059 82.6142C361.384 80.3648 357.978 80.0696 335.607 80.0655L310.31 80.0601V86.8312ZM398.281 82.9419C395.093 84.5263 390.843 87.9796 388.837 90.6176C385.255 95.3262 385.181 95.8232 384.763 118.207L384.336 141H390.443H396.548L396.94 129.828L397.332 118.655L406.747 118.248C423.608 117.518 426.339 119.476 426.339 132.294V141H433.224H440.107L439.632 129.828C438.824 110.85 432.178 105.247 410.149 104.968C398.389 104.821 397.365 104.596 397.738 102.252C397.962 100.846 399.666 98.3245 401.523 96.6493C404.428 94.0302 406.406 93.6023 415.621 93.6023H426.339V99.6963V105.79H433.085H439.831V92.9252V80.0601L421.954 80.0615C406.441 80.0615 403.311 80.4434 398.281 82.9419ZM467.089 82.9419C454.75 89.0724 450.624 99.4349 450.624 124.288V141H482.33H514.035V134.229V127.458H489.075H464.116V116.941C464.116 104.184 466.787 98.1227 474.004 94.5069C478.587 92.2102 478.957 91.5791 478.957 86.0431C478.957 80.7413 478.611 80.0601 475.921 80.0615C474.251 80.0615 470.277 81.3588 467.089 82.9419ZM528.666 83.3915C522.334 87.7101 520.781 92.5623 520.781 108.023V120.687H541.693H562.605V113.916V107.145H548.365H534.124L534.536 100.712L534.947 94.2794L559.57 93.9097L584.192 93.5414V86.8001V80.0601H558.871C534.194 80.0601 533.425 80.1454 528.666 83.3915ZM598.862 82.3406C586.209 90.2222 588.713 111.287 602.769 115.206C605.537 115.978 614.937 116.612 623.655 116.616C633.32 116.621 639.508 117.152 639.508 117.978C639.508 118.723 642.544 119.332 646.254 119.332C652.139 119.332 653 118.98 653 116.577C653 115.06 651.999 112.286 650.777 110.414C646.737 104.228 642.466 103.082 623.433 103.082C607.073 103.082 605.772 102.891 604.384 100.287C601.23 94.3701 604.123 93.6023 629.554 93.6023H653V86.8312V80.0601L627.703 80.0967C606.71 80.1265 601.803 80.5084 598.862 82.3406ZM212.773 103.043C211.187 122.012 205.646 127.444 187.872 127.452L176.742 127.458V110.53V93.6023H195.151H213.561L212.773 103.043ZM286.025 129.489V141H292.771H299.517V129.489V117.978H292.771H286.025V129.489ZM360.229 129.489V141H366.975H373.721V129.489V117.978H366.975H360.229V129.489ZM520.781 134.229V141H552.487H584.192V134.229V127.458H552.487H520.781V134.229ZM597.235 128.361C596.739 128.857 596.335 131.904 596.335 135.132V141H624.667H653V134.229V127.458H625.567C610.478 127.458 597.728 127.864 597.235 128.361Z" fill="white" fill-opacity="1"/>
</svg>
